<svg xmlns="http://www.w3.org/2000/svg" width="26.99" height="26.992" viewBox="0 0 26.99 26.992">
  <path id="Path_5040" data-name="Path 5040" d="M12.736,0a7.73,7.73,0,0,1,5.055,13.621c.364.179.7.364,1,.543A16.687,16.687,0,0,1,20.8,15.618a.923.923,0,0,1,.116,1.307.934.934,0,0,1-1.313.116,15.037,15.037,0,0,0-1.787-1.3,15.07,15.07,0,0,0-1.9-.949,7.831,7.831,0,0,1-6.663-.142l-.058.026A11.346,11.346,0,0,0,3.4,19.213a10.664,10.664,0,0,0-1.523,6.768.925.925,0,0,1-.849,1.007.93.93,0,0,1-1.012-.843,12.5,12.5,0,0,1,1.8-7.907A12.743,12.743,0,0,1,7.449,13.4,7.722,7.722,0,0,1,12.736,0Zm9.984,17.126a.93.93,0,0,1,.928.933v2.367h2.367a.928.928,0,1,1,0,1.855H23.647v2.367a.928.928,0,1,1-1.855,0V22.281H19.425a.928.928,0,1,1,0-1.855h2.367V18.059A.934.934,0,0,1,22.719,17.126ZM12.736,1.855A5.877,5.877,0,1,0,18.65,7.733,5.9,5.9,0,0,0,12.736,1.855Z" transform="translate(0.044)" fill="#fff"/>
</svg>
