<svg xmlns="http://www.w3.org/2000/svg" width="249.524" height="125.871" viewBox="0 0 249.524 125.871">
  <g id="Group_2393" data-name="Group 2393" transform="translate(-1178.999 -268.129)">
    <path id="Path_1" data-name="Path 1" d="M65.418,45.284c3.289,2.865,4.04,6.825,4.169,10.8.227,7.145.037,14.3.117,21.452.018,1.6-.492,2.035-2.09,2.1-8.909.332-8.9.375-8.9-8.485,0-3.677.012-7.354-.006-11.03a26.075,26.075,0,0,0-.172-3.671c-.5-3.388-2.293-5.171-5.023-5.146a5.361,5.361,0,0,0-5.361,5.552c-.178,5.614-.1,11.233-.111,16.853q-.012,5.884-5.952,5.884-5,0-5-4.95c0-5.312.043-10.625-.031-15.937-.068-4.857-1.869-7.39-5.073-7.4-3.369-.012-5.589,2.675-5.687,7.335-.129,6.124-.117,12.26-.006,18.384.037,1.992-.523,2.736-2.576,2.613-2.65-.166-5.318-.049-7.975-.055-.855-.855-.424-1.931-.43-2.9-.037-8.442-.012-16.884-.037-25.319,0-1,.277-2.035-.3-2.982V42.849h5.22q4.39,0,4.863,4.863c3.013-3.542,6.345-5.687,10.834-5.663a10.8,10.8,0,0,1,10.127,5.933c3.007-3.154,6.044-6.056,10.748-5.743,2.711,1.494,5.89,1.679,8.651,3.044Z" transform="translate(1164.029 242.465)" fill="#fff"/>
    <path id="Path_2" data-name="Path 2" d="M310.559,15.4c1.519,2.711.338,5.583.443,8.374.037,1.094-1,.762-1.654.639a7.155,7.155,0,0,0-3.044-.086,5.974,5.974,0,0,0-4.15,6.96c.553,2.57,2.884,1.273,4.273,1.2,2.552-.129,3.265.842,2.908,3.123a1.712,1.712,0,0,0,0,.307c.006,4.968.006,5.073-4.833,5.091-1.961,0-2.392.713-2.373,2.509.08,7.569-.037,15.144.08,22.713.037,2.269-.387,3.443-2.982,3.136-2.619-.314-6.019,1.051-7.716-.516-1.734-1.6-.516-5.023-.553-7.643-.086-5.829-.074-11.664,0-17.492.025-1.771-.135-3.05-2.4-2.656-2,.35-2.49-.744-2.336-2.49a15.5,15.5,0,0,0,0-3.068c-.271-2.17.344-3.351,2.785-2.908,1.4.252,1.943-.307,1.974-1.82.166-7.292,3.21-12.727,10.354-15.359h9.217Z" transform="translate(1059.578 252.729)" fill="#fff"/>
    <path id="Path_3" data-name="Path 3" d="M413.459,69.806c-3.166.018-6.327,0-9.493.08-1.494.037-2.232-.381-2.226-2.047.043-16.724.025-33.448.031-50.172,0-.51.049-1.027.676-1.2,1.2,1.39.916,3.087.916,4.691.031,14.1.006,28.209.018,42.308,0,4.285,3.406,6.345,7.28,4.458,1.31-.639,1.144-1.838,1.168-2.914.08-3.578.031-7.151.031-10.729,0-11.037-.012-22.073.018-33.11,0-1.6-.289-3.3.91-4.691.221-.025.449-.055.67-.08V69.806Z" transform="translate(1015.064 252.344)" fill="#fff"/>
    <path id="Path_4" data-name="Path 4" d="M14.976,52.34c1.045.885.541,2.1.553,3.136.111,9.352.148,18.7.209,28.062l-.769.111V52.34Z" transform="translate(1164.029 238.502)" fill="#fff"/>
    <path id="Path_5" data-name="Path 5" d="M160.884,47.688c2.539-2.982,5.214-4.95,8.749-5.448,8-1.131,13.982,3.277,14.861,11.338.879,8.042.3,16.146.412,24.225.018,1.273-.48,1.709-1.8,1.826-9.493.848-9.481.879-9.493-8.534,0-4.4.049-8.8-.086-13.195-.129-4.267-2.041-6.481-5.331-6.53-3.462-.049-6.118,2.539-6.222,6.573-.166,6.235-.141,12.481-.018,18.716.043,2.146-.32,3.289-2.8,2.964-2.705-.35-6.339,1.162-7.913-.646-1.34-1.543-.461-5.054-.48-7.7-.061-8.694-.018-17.388-.178-26.082-.037-1.955.56-2.582,2.41-2.349a19.2,19.2,0,0,0,2.453.012q4.71-.006,5.429,4.827Z" transform="translate(1111.83 242.459)" fill="#fff"/>
    <path id="Path_6" data-name="Path 6" d="M356.3,75.045c-2.668,3.216-5.552,5.22-9.309,5.663-7.784.91-13.422-3.345-14.252-11.319-.849-8.147-.2-16.355-.338-24.539-.018-1.23.529-1.648,1.66-1.543a2.564,2.564,0,0,0,.307,0q9.272-.547,9.278,8.645c0,4.193-.061,8.393.062,12.586.135,4.574,2.256,7.1,5.62,7,3.48-.1,5.755-2.871,5.8-7.286.061-6.136.1-12.279-.025-18.415-.037-2,.516-2.736,2.558-2.57a34.666,34.666,0,0,0,6.136,0c2.293-.227,2.644.762,2.632,2.791q-.083,15.808.123,31.609c.025,1.906-.523,2.625-2.4,2.392a20.392,20.392,0,0,0-2.453-.018q-4.734,0-5.4-5Z" transform="translate(1041.813 242.006)" fill="#fff"/>
    <path id="Path_7" data-name="Path 7" d="M379.723,159.563c1.4-5.6,2.619-10.5,3.837-15.4.369-1.488.719-2.976,1.088-4.464q1.125-4.525,5.915-4.525c6.948,0,7,.018,4.667,6.61-3.542,10-6.579,20.192-11.024,29.857-2.281,4.962-4.931,9.7-9.739,12.721-2.41,1.513-5.441,3.88-7.772,2.509-2.164-1.273-1.586-5.2-2.5-7.882-.344-1.008.492-1.217,1.162-1.414a14.834,14.834,0,0,0,4.365-2.183c3.978-2.8,4.568-4.814,2.816-9.3-3.683-9.407-7.323-18.833-11.1-28.2-.873-2.158-.633-2.939,1.826-2.736,3.044.252,6.7-1.107,8.989.5,2.177,1.537,2.023,5.349,2.908,8.159.8,2.533,1.58,5.066,2.318,7.612.713,2.447,1.359,4.913,2.244,8.134Z" transform="translate(1030.768 206.719)" fill="#fff"/>
    <path id="Path_8" data-name="Path 8" d="M273.3,166.508c-3.818,5.048-8.645,6.431-14.16,5.325-5.38-1.076-8.731-5.515-9.1-12.666-.375-7.335-.123-14.7-.191-22.055-.012-1.291.387-1.838,1.746-1.8,2.453.074,4.913.117,7.36-.012,1.728-.092,2.017.7,2,2.183-.061,5.515-.025,11.03-.018,16.546a17.029,17.029,0,0,0,.461,4.556c.9,3.289,2.625,4.667,5.626,4.4a5.5,5.5,0,0,0,5.073-5.546c.111-6.228.221-12.469-.018-18.691-.111-2.945.916-3.535,3.621-3.48,7.513.16,7.495.049,7.526,7.446.037,8.682-.264,17.369.35,26.039.16,2.207-.547,2.988-2.681,2.675a13.093,13.093,0,0,0-1.838-.012q-4.79,0-5.755-4.9Z" transform="translate(1073.574 206.563)" fill="#fff"/>
    <path id="Path_9" data-name="Path 9" d="M338.9,133.741c-.055,4.857.473,4.372-4.292,4.132-3.025-.154-3.88.75-3.634,3.7.283,3.455.018,6.954.1,10.428.1,3.978,1.236,5.2,5.171,5.036,2.06-.08,2.3.689,2.318,2.435.068,6.794.061,6.849-6.825,6.825-6.7-.025-10.274-3.123-11.2-9.678-.762-5.4-.307-10.827-.35-16.244-.012-1.8-.375-2.748-2.361-2.423-1.728.283-2.447-.461-2.263-2.213a14.622,14.622,0,0,0,0-3.068c-.24-2.213.271-3.578,2.908-3.136,1.728.3,1.642-.935,1.685-2.121.209-5.6.227-5.589,5.626-6.9q5.251-1.273,5.251,4.181c0,4.827.018,5.116,4.771,4.765,3.953-.289,3,2.2,3.093,4.279Z" transform="translate(1048.27 212.338)" fill="#fff"/>
    <path id="Path_10" data-name="Path 10" d="M413.181,16.526q.028,25.132.08,50.264c.006,1.74-.357,2.521-2.349,2.582-8.153.252-8.159.32-8.153-7.8q.028-22.522.074-45.05,5.174,0,10.342.012Z" transform="translate(1014.672 252.297)" fill="#fff"/>
    <path id="Path_11" data-name="Path 11" d="M129.131,79.532c-3.265,1.137-6.628.3-9.948.455-1.15.055-1.064-1.027-1.064-1.838,0-10.944.043-21.895,0-32.839,0-1.635.633-2,2.17-2.066,9.235-.381,9.235-.424,9.235,8.8,0,8.184.012,16.367-.018,24.557,0,.984.338,2.054-.4,2.951-1.162-1.267-.99-2.847-1-4.359-.025-8.27.006-16.546-.018-24.821-.012-4.076-.135-4.163-4.138-3.806-4.365.387-4.378.387-4.384,4.642-.012,7.864-.025,15.728.006,23.592.018,3.437.264,3.6,3.64,3.738,2,.08,4.132-.48,5.9.99Z" transform="translate(1124.303 242.051)" fill="#fff"/>
    <path id="Path_12" data-name="Path 12" d="M91.6,45.345c-3.21-.086-6.327-.455-8.651-3.044C86.326,41.926,89.32,42.627,91.6,45.345Z" transform="translate(1137.848 242.404)" fill="#fff"/>
    <path id="Path_13" data-name="Path 13" d="M253.983,16.79c-1.635-1.666-4.863-.252-7.36-.59-2.785-.381-3.683.59-3.548,3.455.246,5.128.068,10.274.068,15.746-9.327-6.954-21.464-2.595-24.637,8.712a25.754,25.754,0,0,0-.178,13.644c1.549,5.9,4.82,10.428,11.006,12.033,5.78,1.5,10.686-.172,14.664-5.226q1.008,4.968,5.773,4.968a14.683,14.683,0,0,1,2.146.018c2.146.314,2.742-.51,2.718-2.687-.154-14.32-.135-28.646-.227-42.966-.018-2.435,1.058-5.589-.437-7.114ZM243.6,56.2c-.824,2.675-2.472,4.439-5.306,4.845a6.63,6.63,0,0,1-6.874-3.031c-2.478-3.677-2.361-10.661.209-14.271a6.619,6.619,0,0,1,6.929-2.9c2.656.467,4.23,2.238,5.1,4.747a14.858,14.858,0,0,1,.418,4.611,19.1,19.1,0,0,1-.48,6.007Z" transform="translate(1086.027 252.514)" fill="#fff"/>
    <path id="Path_14" data-name="Path 14" d="M86.907,134.629c-2.343-7.071-8.19-10.969-15.211-10.231-3.332.35-6.087,1.949-8.885,4.538,0-4.439.074-8.3-.025-12.156-.068-2.521,1.144-5.8-.529-7.366-1.635-1.531-4.9-.227-7.421-.5-2.343-.252-3.1.461-3.087,2.957.117,14.32.068,28.64.006,42.96-.025,6.394-.092,6.308,6.419,6.364,2.047.018,3.117-.455,2.908-2.662a13.227,13.227,0,0,1,.123-1.9c9.069,10.348,23.247,4.107,26.014-7.2a26.33,26.33,0,0,0-.314-14.812ZM75.612,149.177A6.656,6.656,0,0,1,62.9,146.791c-.1-1.211-.018-2.441-.018-3.665h.031a37.081,37.081,0,0,1,.025-3.966,6.9,6.9,0,0,1,5.552-6.124,6.707,6.707,0,0,1,7.206,4.009,14.29,14.29,0,0,1-.074,12.131Z" transform="translate(1149.863 216.811)" fill="#fff"/>
    <path id="Path_15" data-name="Path 15" d="M216.756,169.384c-.787-7.649.061-15.347-.621-22.983-.5-5.552-3.271-9.715-8.811-11.35-6.327-1.869-12.543-.99-18.581,1.482-.91.375-1.654.726-1.224,2,.652,1.9,1.162,3.855,1.709,5.712a45.362,45.362,0,0,1,5.4-1.869c2.8-.609,5.681-1,8.423.3a3.136,3.136,0,0,1,2.084,3.412c-.3,1.635-1.857.83-2.816.9-4.556.307-8.946,1.137-12.752,3.824a11.854,11.854,0,0,0-4.31,13.361c1.592,4.833,5.564,7.44,11.073,7.5,3.843.043,6.985-1.537,10.065-4.261-.043,3.357,1.709,3.831,4.15,3.554a31.969,31.969,0,0,1,4.605-.018c1.15.043,1.722-.326,1.592-1.562ZM205.707,156.9c-.037,4.076-1.986,6.524-5.288,6.788-1.974.16-3.751-.258-4.513-2.3a4.527,4.527,0,0,1,1.383-5.509,10.658,10.658,0,0,1,7.231-1.912c2.232.074.67,2.1,1.181,2.933Z" transform="translate(1098.672 207.031)" fill="#fff"/>
    <path id="Path_16" data-name="Path 16" d="M133.877,156.437c2.957.129,5.927.031,8.891.031a80.712,80.712,0,0,1,8.276.061c2.8.3,3.677-.9,3.585-3.4-.025-.713.025-1.433-.012-2.146-.437-8.54-4.507-14.517-11.061-16.244-9.758-2.576-18.605,2.423-21.514,12.149-3.074,10.3.867,20.069,9.549,23.34,4.919,1.851,10,1.7,15.113.824,6.192-1.064,6.124-1.027,4.98-7.046-.338-1.765-.971-2.1-2.632-1.629a25.7,25.7,0,0,1-10.336.633,7.971,7.971,0,0,1-6.308-3.824c-.941-1.623-1.181-2.859,1.469-2.742Zm-2.041-9.358a6.969,6.969,0,0,1,6.886-5.5,5.507,5.507,0,0,1,4.624,2.921c1.894,3.357,1.322,4.353-2.509,4.359-2.552,0-5.1-.049-7.655.018-1.414.037-1.722-.375-1.34-1.789Z" transform="translate(1123.189 207.023)" fill="#fff"/>
    <path id="Path_17" data-name="Path 17" d="M129.444,80.735c-2.662-.025-5.325-.129-7.975-.037-1.789.061-2.552-.443-2.539-2.392.08-9.708.068-19.417.012-29.125-.012-1.752.639-2.349,2.343-2.281a13.876,13.876,0,0,0,4.857-.4c2.269-.719,3.277.049,3.253,2.687-.1,10.526.006,21.052.037,31.572l.012-.018Z" transform="translate(1123.988 240.85)" fill="#fff"/>
  </g>
</svg>
