<svg xmlns="http://www.w3.org/2000/svg" width="181" height="34" viewBox="0 0 181 34">
  <g id="Group_1876" data-name="Group 1876" transform="translate(-1466 -288)">
    <g id="Rectangle_1123" data-name="Rectangle 1123" transform="translate(1466 288)" fill="#fff" stroke="#fabc2a" stroke-width="1">
      <rect width="181" height="34" rx="6" stroke="none"/>
      <rect x="0.5" y="0.5" width="180" height="33" rx="5.5" fill="none"/>
    </g>
    <text id="Reset_Password" data-name="Reset Password" transform="translate(1506 312)" fill="#fabc2a" font-size="18" font-family="Roboto-Regular, Roboto"><tspan x="0" y="0">Reset Password</tspan></text>
    <g id="Layer_1" transform="translate(1478.131 293.002)">
      <path id="Path_5041" data-name="Path 5041" d="M43.923,65.236a9.819,9.819,0,0,0,8.754-.224,9.97,9.97,0,0,0,4.178-13.556c-.046-.087-.093-.175-.143-.26-.163-.277-.167-.545.13-.718s.522,0,.677.264a10.353,10.353,0,0,1,1.126,2.792A10.869,10.869,0,0,1,43.522,66.071c.164.426.287.767.425,1.1a.465.465,0,1,1-.855.363c-.293-.691-.575-1.386-.841-2.086a.476.476,0,0,1,.293-.675c.733-.292,1.466-.587,2.2-.869a.463.463,0,1,1,.352.857c-.339.157-.692.283-1.176.479Z" transform="translate(-37.186 -44.406)" fill="#fabc2a"/>
      <path id="Path_5042" data-name="Path 5042" d="M15.729,2.028c-.14-.537-.241-.954-.361-1.366-.094-.324-.011-.563.319-.647.3-.075.481.089.562.381.189.685.388,1.368.577,2.053a.532.532,0,0,1-.421.758c-.706.186-1.409.392-2.107.6-.323.1-.57.024-.667-.292s.1-.518.406-.606c.243-.07.485-.146.761-.23a7.52,7.52,0,0,0-2.7-.82A10,10,0,0,0,.912,12.156,9.711,9.711,0,0,0,2.03,16.363c.064.123.124.248.193.367.171.3.193.581-.144.76s-.52-.045-.667-.3A10.44,10.44,0,0,1,.181,13.869,10.885,10.885,0,0,1,8.8,1.07,10.565,10.565,0,0,1,15.729,2.028Z" transform="translate(0 0)" fill="#fabc2a"/>
      <path id="Path_5043" data-name="Path 5043" d="M62.269,45.869a1.312,1.312,0,0,0-.8-1.354c-.973-.241-.775-.9-.785-1.537,0-.218.006-.437-.006-.654a2.955,2.955,0,0,0-5.865-.406,10.753,10.753,0,0,0-.056,1.9c0,.239-.038.36-.317.45a1.7,1.7,0,0,0-1.272,1.787q-.014,2.111,0,4.222A1.791,1.791,0,0,0,55.11,52.2c.872.01,1.744,0,2.617,0h2.736a1.764,1.764,0,0,0,1.805-1.748c.024-1.526.011-3.053,0-4.579Zm-4.664-5.45a1.985,1.985,0,0,1,2.134,1.907c.021.589.2,1.337-.089,1.725-.273.369-1.066.073-1.628.114-.1.007-.2,0-.3,0H57.31q-1.6,0-1.609-.474c-.032-2.275.516-3.218,1.9-3.274Zm3.753,9.8c-.007.737-.32,1.029-1.067,1.032-.853,0-1.7,0-2.556,0-.872,0-1.744,0-2.616,0-.7-.006-1.02-.3-1.028-1.011q-.023-2.081,0-4.161a.884.884,0,0,1,1-.983q2.616-.018,5.232,0a.9.9,0,0,1,1.028,1.022q.02,2.05,0,4.1Z" transform="translate(-46.843 -34.773)" fill="#fabc2a"/>
      <path id="Path_5044" data-name="Path 5044" d="M81.608,95.382a1.518,1.518,0,0,0-2.858.006,1.393,1.393,0,0,0,.511,1.682.819.819,0,0,1,.455.9c-.031.35,0,.729.47.727s.5-.38.466-.73a.823.823,0,0,1,.455-.9,1.4,1.4,0,0,0,.5-1.686Zm-1.426,1.091a.576.576,0,1,1,.057-1.148.56.56,0,0,1,.533.593A.57.57,0,0,1,80.182,96.472Z" transform="translate(-69.299 -83.144)" fill="#fabc2a"/>
    </g>
  </g>
</svg>
