<svg xmlns="http://www.w3.org/2000/svg" xmlns:xlink="http://www.w3.org/1999/xlink" width="42.486" height="46.341" viewBox="0 0 42.486 46.341">
  <defs>
    <clipPath id="clip-path">
      <rect id="Rectangle_195" data-name="Rectangle 195" width="42.486" height="46.341" fill="#ec176f"/>
    </clipPath>
  </defs>
  <g id="Group_195" data-name="Group 195" clip-path="url(#clip-path)">
    <path id="Path_536" data-name="Path 536" d="M86.989,0a4.306,4.306,0,0,1,2.418,1.3,3.786,3.786,0,0,1,.982,2.512c.016,1.4.017,2.8-.034,4.2a3.822,3.822,0,0,1-3.934,3.574c-1.418,0-2.836,0-4.254,0h-.425V13.51h.543q3.914,0,7.829,0a4.1,4.1,0,0,1,2.474.715c.764.549.83,1.136.141,1.789a8.254,8.254,0,0,0-2.26,3.232,33.056,33.056,0,0,0-.851,3.406c-.112.483-.165.98-.258,1.468a1,1,0,0,1-1.176.972c-1.87.005-3.741,0-5.611,0q-4.571,0-9.141,0c-.913,0-1.171-.216-1.34-1.109-.241-1.272-.418-2.56-.738-3.811a8.388,8.388,0,0,0-2.375-3.939c-.119-.116-.241-.228-.355-.348a.972.972,0,0,1,.125-1.558,4.1,4.1,0,0,1,2.622-.82q3.892,0,7.784,0h.578V11.586h-.459c-1.4,0-2.806.011-4.208,0a3.841,3.841,0,0,1-3.85-2.948,3.353,3.353,0,0,1-.122-.892c.008-1.507-.022-3.017.073-4.52A3.775,3.775,0,0,1,74.2.083c.1-.02.2-.055.3-.083Z" transform="translate(-59.499)" fill="#ec176f"/>
    <path id="Path_537" data-name="Path 537" d="M20.137,137.395h-.544c-2.761,0-5.521.01-8.281,0a5.806,5.806,0,0,1-5.885-4.856c-.277-1.5-.5-3-.75-4.5-.02-.119-.042-.237-.063-.356-.256-1.423-.59-1.741-2.012-1.911A2.865,2.865,0,0,1,.44,121.4a3.066,3.066,0,0,1,3.353-1.331,7.445,7.445,0,0,1,6.5,6.442c.246,1.578.539,3.148.781,4.726.05.327.186.376.468.375q9.684-.01,19.369,0c.3,0,.443-.056.5-.4.275-1.756.544-3.514.891-5.257a7.364,7.364,0,0,1,7.545-5.916,2.876,2.876,0,0,1,.147,5.717c-.15.018-.3.041-.449.058a1.668,1.668,0,0,0-1.627,1.532q-.421,2.472-.823,4.948a5.819,5.819,0,0,1-5.948,5.1c-2.745.011-5.491,0-8.236,0h-.593c.074.787.139,1.531.213,2.274.107,1.065.238,2.128.321,3.194.026.334.143.422.459.444a15.774,15.774,0,0,1,4.892,1.008A6.978,6.978,0,0,1,30,145.334a2.086,2.086,0,0,1-.074,3.5,7.506,7.506,0,0,1-2.143,1.126,22.376,22.376,0,0,1-9.035.817,15.1,15.1,0,0,1-4.485-.985,6.933,6.933,0,0,1-1.974-1.226,2.022,2.022,0,0,1,.042-3.11,6.274,6.274,0,0,1,3.045-1.5c1.258-.29,2.546-.455,3.826-.643.292-.043.4-.117.43-.425.154-1.681.337-3.359.506-5.039.013-.131,0-.264,0-.449" transform="translate(0 -104.562)" fill="#ec176f"/>
  </g>
</svg>
