<svg id="user-admin" xmlns="http://www.w3.org/2000/svg" width="29.028" height="29.396" viewBox="0 0 29.028 29.396">
  <path id="Path_5048" data-name="Path 5048" d="M25.29,17.847,27,16.132,22.473,11.6l-7.1,7.1a4.026,4.026,0,0,0-2.082-.49A4.287,4.287,0,1,0,17.574,22.5a5.77,5.77,0,0,0-.49-2.082l2.327-2.327,2.817,2.817,1.715-1.715-2.817-2.817,1.347-1.347Zm-12,6.492A1.837,1.837,0,1,1,15.124,22.5,1.884,1.884,0,0,1,13.287,24.338Z" transform="translate(2.023 2.608)" fill="#ec176f"/>
  <path id="Path_5049" data-name="Path 5049" d="M2.45,23.271A8.521,8.521,0,0,1,11.023,14.7a8.933,8.933,0,0,1,6.492,2.94l1.837-1.592a10.615,10.615,0,0,0-3.8-2.817,7.56,7.56,0,0,0,2.817-5.879A7.349,7.349,0,1,0,6.614,13.228,10.9,10.9,0,0,0,0,23.271V29.4H9.8v-2.45H2.45ZM6.124,7.349a4.9,4.9,0,1,1,4.9,4.9A4.914,4.914,0,0,1,6.124,7.349Z" fill="#ec176f"/>
</svg>
