<svg xmlns="http://www.w3.org/2000/svg" xmlns:xlink="http://www.w3.org/1999/xlink" width="107.184" height="103.203" viewBox="0 0 107.184 103.203">
  <defs>
    <clipPath id="clip-path">
      <rect id="Rectangle_1295" data-name="Rectangle 1295" width="107.184" height="103.203" fill="#646464"/>
    </clipPath>
  </defs>
  <g id="Group_2352" data-name="Group 2352" clip-path="url(#clip-path)">
    <path id="Path_5067" data-name="Path 5067" d="M19.124,116.58l6.673-2.8L9.2,100.865,3.664,122.991l6.842-2.822c6.94,15.878,18.609,26.139,35.657,29.594a46.054,46.054,0,0,0,36.344-7.526,48,48,0,0,0,9.234-70.867l2.835-2.443c11.753,14.706,15.764,31.153,10.015,49.063-6.578,20.493-21.157,32.359-42.41,35.954-24.258,2.279-41.8-7.884-53.748-28.911-.845.35-1.9.763-2.939,1.224a3.719,3.719,0,0,1-4.244-.471,3.788,3.788,0,0,1-1.056-4.143q2.664-10.574,5.288-21.157c.822-3.291,3.67-4.314,6.351-2.241q7.956,6.148,15.874,12.344c2.774,2.17,2.312,5.426-.939,6.8-.889.377-1.785.739-2.682,1.11A35.042,35.042,0,1,0,40.035,71.117L38.5,67.983c8.888-4.98,24.807-6.436,38.09,2.3a38.771,38.771,0,1,1-57.467,46.3" transform="translate(0 -51.056)" fill="#646464"/>
    <path id="Path_5068" data-name="Path 5068" d="M215.4,133.563a13.54,13.54,0,0,1-9.512-4.09,18.03,18.03,0,0,1-.06-24.976,13.56,13.56,0,0,1,19.548.023c7.418,7.43,6.368,20.8-2.091,26.628a13.453,13.453,0,0,1-7.885,2.415m11.28-16.457a14.9,14.9,0,0,0-1.9-7.345c-3.787-6.568-11.7-7.637-16.718-2.255a14.333,14.333,0,0,0,.491,19.4,9.812,9.812,0,0,0,13.749.287,13.5,13.5,0,0,0,4.374-10.089" transform="translate(-160.256 -80.071)" fill="#646464"/>
    <path id="Path_5069" data-name="Path 5069" d="M151.675,12.458l-2.343,2.731c-10.276-8.455-21.969-12.4-35.2-11.326-13.205,1.071-24.044,6.907-32.809,16.855l-2.71-2.28c17.314-21.4,50.9-25.191,73.057-5.981" transform="translate(-62.732 0)" fill="#646464"/>
    <path id="Path_5070" data-name="Path 5070" d="M213.477,301.381h-3.662c0-.414,0-.8,0-1.181-.005-2.162.042-4.326-.029-6.486a7.137,7.137,0,0,0-6.995-6.993q-9.567-.122-19.137,0a7.153,7.153,0,0,0-7.008,7.1c-.056,2.481-.01,4.964-.01,7.532h-3.843c.153-3.348-.041-6.736.538-9.986a10.422,10.422,0,0,1,10.045-8.312c6.557-.117,13.12-.135,19.676,0a10.762,10.762,0,0,1,10.407,10.422c.1,2.614.017,5.236.017,7.906" transform="translate(-137.878 -225.782)" fill="#646464"/>
    <path id="Path_5071" data-name="Path 5071" d="M116.979,132.667l2.8,2.359-2.193,2.907-3.059-2.051,2.449-3.214" transform="translate(-91.388 -105.86)" fill="#646464"/>
    <path id="Path_5072" data-name="Path 5072" d="M156.12,99.783l-2.787,2.111-2.365-2.813,3.086-2.34,2.066,3.041" transform="translate(-120.463 -77.194)" fill="#646464"/>
    <rect id="Rectangle_1292" data-name="Rectangle 1292" width="3.528" height="3.554" transform="translate(101.571 84.949)" fill="#646464"/>
    <rect id="Rectangle_1293" data-name="Rectangle 1293" width="3.53" height="3.566" transform="translate(96.014 92.335)" fill="#646464"/>
    <rect id="Rectangle_1294" data-name="Rectangle 1294" width="3.513" height="3.587" transform="translate(88.641 97.814)" fill="#646464"/>
    <path id="Path_5073" data-name="Path 5073" d="M50.506,118.379l1.921-3.161L55.5,117.24l-1.789,2.935-3.208-1.8" transform="translate(-40.301 -91.937)" fill="#646464"/>
    <path id="Path_5074" data-name="Path 5074" d="M33.069,156.321l1.3-3.187,3.356,1.443-1.179,2.983-3.481-1.239" transform="translate(-26.387 -122.192)" fill="#646464"/>
  </g>
</svg>
